<?xml version="1.0" encoding="UTF-8"?>
<svg xmlns="http://www.w3.org/2000/svg" xmlns:xlink="http://www.w3.org/1999/xlink" version="1.1" id="Capa_1" x="0px" y="0px" viewBox="0 0 511.941 511.941" style="enable-background:new 0 0 511.941 511.941;" xml:space="preserve" width="512" height="512">
<g>
	<g>
		<path style="fill:none;stroke:#000000;stroke-width:15;stroke-linecap:round;stroke-linejoin:round;stroke-miterlimit:10;" d="&#10;&#9;&#9;&#9;M113.265,361.382l42.804-112.387c0.875-2.138,3.902-2.141,4.781-0.005l42.415,112.392"/>
		
			<line style="fill:none;stroke:#000000;stroke-width:15;stroke-linecap:round;stroke-linejoin:round;stroke-miterlimit:10;" x1="126.614" y1="333.392" x2="190.131" y2="333.392"/>
	</g>
	<path style="fill:none;stroke:#000000;stroke-width:15;stroke-linecap:round;stroke-linejoin:round;stroke-miterlimit:10;" d="&#10;&#9;&#9;M120.441,441.721c-30.117,3.545-54.16,2.944-62.433,0.406c-12.203-3.744-14.395-20.169-3.594-26.97&#10;&#9;&#9;c0.044-0.028,0.088-0.055,0.132-0.083c6.458-4.093,6.851-13.432,0.859-18.181C25.93,373.527,7.5,340.225,7.5,303.264&#10;&#9;&#9;c0-70.692,67.421-128,150.588-128c16.085,0,31.58,2.144,46.113,6.113"/>
	<path style="fill:none;stroke:#000000;stroke-width:15;stroke-linecap:round;stroke-linejoin:round;stroke-miterlimit:10;" d="&#10;&#9;&#9;M308.078,315.021c-7.743,74.658-89.092,108.76-157.519,122.017"/>
	<path style="fill:none;stroke:#000000;stroke-width:15;stroke-linecap:round;stroke-linejoin:round;stroke-miterlimit:10;" d="&#10;&#9;&#9;M221.966,255.971c54.058,77.21,208.183,85.925,231.966,78.628c12.203-3.744,14.395-20.169,3.594-26.97&#10;&#9;&#9;c-0.044-0.028-0.088-0.055-0.132-0.083c-6.458-4.093-6.851-13.432-0.859-18.181c29.475-23.365,47.905-56.667,47.905-93.628&#10;&#9;&#9;c0-70.692-67.421-128-150.588-128s-150.588,57.308-150.588,128c0,10.802,1.464,20.825,4.171,30.118"/>
	
		<line style="fill:none;stroke:#000000;stroke-width:15;stroke-linecap:round;stroke-linejoin:round;stroke-miterlimit:10;" x1="308.676" y1="165.618" x2="414.088" y2="165.618"/>
	<path style="fill:none;stroke:#000000;stroke-width:15;stroke-linecap:round;stroke-linejoin:round;stroke-miterlimit:10;" d="&#10;&#9;&#9;M316.206,255.971c8.135-0.782,31.662-4.213,52.706-24.642c25.939-25.181,29.48-58.109,30.118-65.711"/>
	<path style="fill:none;stroke:#000000;stroke-width:15;stroke-linecap:round;stroke-linejoin:round;stroke-miterlimit:10;" d="&#10;&#9;&#9;M406.559,255.971c-8.135-0.782-31.662-4.213-52.706-24.642c-6.217-6.035-11.147-12.516-15.06-18.986"/>
	
		<line style="fill:none;stroke:#000000;stroke-width:15;stroke-linecap:round;stroke-linejoin:round;stroke-miterlimit:10;" x1="361.382" y1="165.618" x2="361.382" y2="143.029"/>
</g>















</svg>
