<svg xmlns="http://www.w3.org/2000/svg" xmlns:xlink="http://www.w3.org/1999/xlink" preserveAspectRatio="xMidYMid meet" version="1.0" viewBox="32.4 72.2 148.7 119.2" zoomAndPan="magnify" style="fill: rgb(255, 255, 255);" original_string_length="4135" width="149px" height="119px"><g id="__id2_sw9br02lat"><path d="m 103.97216,72.866009 c 27.81453,-0.642617 63.51882,15.188685 70.39092,47.019941 6.77283,31.93929 -34.95913,13.60453 -27.06435,-2.04731 -8.57888,-16.90658 -25.98858,-16.21752 -42.18004,-16.1175 -19.162911,-0.86815 -37.969071,-0.42755 -44.473091,16.1175 9.03382,13.1293 -27.34242,33.76755 -28.03921,6.98907 -0.20727,-3.80163 0.54291,-6.9285 1.85389,-10.19219 11.88115,-29.464297 43.40936,-41.473184 69.511881,-41.769511 z m -37.962701,49.539071 -25.04056,37.66105 c -1.35505,1.66012 -2.11919,3.74557 -2.36367,5.61945 -0.18109,1.43173 -0.20406,2.906 -0.23542,4.16456 l 0.47048,11.72851 c -0.0784,1.358 0.18529,2.79096 0.52853,3.8153 0.72523,2.14051 2.50151,5.83137 6.38103,6.06014 H 161.5097 c 3.02021,-0.64622 5.10471,-2.85955 6.42505,-5.41886 0.70559,-1.1212 0.74393,-2.01402 0.74393,-3.3205 v -12.86459 c -0.0293,-1.08141 -0.0987,-2.23858 -0.2389,-3.38737 -0.1791,-2.9239 -1.27551,-4.72702 -2.85471,-7.11228 L 141.1248,122.40508 v -10.19762 c 0,-1.87274 -2.50967,-3.67302 -4.45446,-4.48211 -2.34057,-0.97374 -5.26127,-0.96578 -7.60514,0 -1.97976,0.81575 -4.55902,2.61621 -4.55902,4.52541 v 10.15432 H 82.627599 v -7.84275 c 0.0334,-1.08733 0.0919,-2.26353 -0.50251,-3.06098 -0.82727,-1.10367 -2.52432,-3.19059 -3.92848,-3.776 -2.21659,-0.92411 -4.97159,-0.88384 -7.20454,0 -1.82665,0.72302 -3.65794,2.2577 -4.52265,4.09953 -1.5002,3.19543 -0.45982,7.76795 -0.45994,10.5802 z m 19.9918,11.00604 h 5.58165 c 0,0 2.58215,-0.51791 1.88291,2.14263 l -0.77762,2.95877 c 0,0 -0.25191,2.36543 -3.20888,2.37293 l -6.38993,0.0162 c 0,0 -3.20381,0.44266 -2.08761,-2.16784 l 1.47255,-3.35479 c 0,0 0.9909,-1.96792 3.52693,-1.96792 z m 13.34742,0 h 6.714161 c 2.44192,-0.034 2.81669,1.75323 2.81669,1.75323 l 0.84772,3.22555 c 0.7261,2.962 -2.85534,2.45096 -2.85534,2.45096 l -9.060001,0.0232 c 0,0 -2.76216,0.60803 -1.96892,-2.41079 l 0.80779,-3.07425 c 0.52117,-2.38267 2.6979,-1.9679 2.6979,-1.9679 z m 14.803501,0 h 7.28041 c 0,0 2.24581,-0.26819 3.22707,1.9674 l 1.28082,2.91808 c 0,0 1.57878,2.49157 -1.83837,2.50089 l -7.76572,0.0199 c -3.34539,0.0331 -3.48918,-2.49892 -3.48918,-2.49892 l -0.75249,-2.86322 c 0,0 -0.7138,-2.04413 2.05746,-2.04413 z m 15.0458,12.30824 0.65712,1.49709 c 0,0 1.18025,2.16471 -1.87027,2.17228 -2.88511,0.007 -5.77022,0.0147 -8.65534,0.022 -3.6444,-0.10981 -4.12773,-2.13297 -4.12773,-2.13297 l -0.44365,-1.68847 c 0,0 -0.0685,-1.73253 2.5491,-1.7395 l 8.65554,-0.0219 c 2.5627,-0.0946 3.23523,1.89147 3.23523,1.89147 z m -17.63554,-0.3447 0.47308,1.8 c 0,0 0.39009,2.25408 -3.14101,2.26307 l -12.619501,0.0321 c -3.58962,-0.11447 -2.72578,-2.28805 -2.72578,-2.28805 l 0.43843,-1.66858 c 0,0 0.67964,-1.60525 2.77234,-1.6106 l 11.648581,-0.0298 c 2.5548,0.0819 3.15386,1.50183 3.15386,1.50183 z m -20.713761,0.13859 -0.41971,1.59676 c -0.61515,2.50626 -2.56703,2.38111 -2.56703,2.38111 l -8.41307,0.0215 c -3.57329,-0.0972 -2.18681,-2.25765 -2.18681,-2.25765 l 0.72597,-1.65428 c 0,0 1.02613,-1.65298 3.24032,-1.65862 l 7.44215,-0.019 c 2.59781,0.12447 2.17818,1.59015 2.17818,1.59015 z m 42.325781,9.26578 0.81428,1.85522 c 0,0 1.58139,2.47251 -1.79882,2.47251 h -10.60503 c -3.59041,-0.0221 -3.91327,-2.42971 -3.91327,-2.42971 l -0.48766,-1.85563 c 0,0 -0.67157,-2.36684 2.95461,-2.37596 l 9.35189,-0.0239 c 0,0 2.47175,-0.40441 3.684,2.35747 z m -19.13845,0.008 0.48752,1.85567 c 0,0 0.56583,2.46378 -3.25444,2.46378 H 94.493869 c -4.23203,-0.22785 -3.45051,-2.38864 -3.45051,-2.38864 l 0.53499,-2.03601 c 0,0 0.82772,-2.16627 4.26522,-2.17464 l 13.979761,-0.0357 c 3.82267,0.0899 4.21268,2.31554 4.21268,2.31554 z m -25.687821,0.24232 -0.48136,1.83195 c -0.39285,2.59202 -3.20671,2.24517 -3.20671,2.24517 l -9.73735,-1e-5 c -2.48485,-0.19782 -1.74533,-2.54538 -1.74533,-2.54538 l 0.84974,-1.93606 c 0,0 0.8571,-2.06479 3.40233,-2.07134 l 8.96601,-0.023 c 0,0 2.75911,-0.57041 1.95267,2.49871 z" fill-rule="evenodd" style="fill: inherit;"></path></g></svg>