<svg xmlns="http://www.w3.org/2000/svg" xmlns:xlink="http://www.w3.org/1999/xlink" data-name="Layer 1" preserveAspectRatio="xMidYMid meet" version="1.0" viewBox="122.7 24.3 267.2 461.9" zoomAndPan="magnify" style="fill: rgb(255, 255, 255);" original_string_length="807" width="267px" height="462px"><g id="__id0_sw9br02lat"><path d="M150.72,486.17a16.77,16.77,0,0,1-10.21-3.53,16.48,16.48,0,0,1-4.57-21.28l.08-.14L236.2,283.83H140.68a16.76,16.76,0,0,1-12-28.43L332.19,31.12l.29-.31A16.76,16.76,0,0,1,359.67,49.4l-.12.26L280.42,215.15h84.05a23.6,23.6,0,0,1,16.95,40l-218.94,226-.25.25A16.66,16.66,0,0,1,150.72,486.17ZM150.27,469h0Zm-8.44-202.45h95.24a16.76,16.76,0,0,1,14.74,24.72l-.08.14L153.07,466.11,369,243.15a6.33,6.33,0,0,0-4.55-10.74H279.61a16.76,16.76,0,0,1-15.35-23.49l.12-.26,78-163.07ZM351.77,45.93h0Z" style="fill: inherit;"></path></g></svg>